<svg xmlns="http://www.w3.org/2000/svg" viewBox="0 0 800 1000" width="800" height="1000" role="img" aria-label="field-bottle">
<defs>
<linearGradient id="bg" x1="0" y1="0" x2="0" y2="1"><stop offset="0" stop-color="#f4f2ef"/><stop offset="1" stop-color="#e7e4dd"/></linearGradient>
<radialGradient id="glow" cx="50%" cy="24%" r="62%"><stop offset="0" stop-color="#fff" stop-opacity=".9"/><stop offset="1" stop-color="#fff" stop-opacity="0"/></radialGradient>
<linearGradient id="dk" x1="0" y1="0" x2="0" y2="1"><stop offset="0" stop-color="#3c3c41"/><stop offset=".55" stop-color="#26262a"/><stop offset="1" stop-color="#151518"/></linearGradient>
<linearGradient id="dkh" x1="0" y1="0" x2="1" y2="1"><stop offset="0" stop-color="#4a4a50"/><stop offset="1" stop-color="#1a1a1e"/></linearGradient>
<linearGradient id="mt" x1="0" y1="0" x2="1" y2="1"><stop offset="0" stop-color="#efece5"/><stop offset=".5" stop-color="#c8c2b6"/><stop offset="1" stop-color="#98917f"/></linearGradient>
<linearGradient id="mt2" x1="0" y1="0" x2="0" y2="1"><stop offset="0" stop-color="#d9d4c9"/><stop offset="1" stop-color="#8f8878"/></linearGradient>
<radialGradient id="sh" cx="50%" cy="50%" r="50%"><stop offset="0" stop-color="#0b0b0c" stop-opacity=".46"/><stop offset=".65" stop-color="#0b0b0c" stop-opacity=".16"/><stop offset="1" stop-color="#0b0b0c" stop-opacity="0"/></radialGradient>
<radialGradient id="face" cx="35%" cy="28%" r="80%"><stop offset="0" stop-color="#31313a"/><stop offset="1" stop-color="#0c0c10"/></radialGradient>
<linearGradient id="lens" x1="0" y1="0" x2="1" y2="1"><stop offset="0" stop-color="#3d3f45"/><stop offset=".5" stop-color="#15161a"/><stop offset="1" stop-color="#26272d"/></linearGradient>
<filter id="b24" x="-50%" y="-50%" width="200%" height="200%"><feGaussianBlur stdDeviation="24"/></filter>
<filter id="b10" x="-50%" y="-50%" width="200%" height="200%"><feGaussianBlur stdDeviation="10"/></filter>
<filter id="grain"><feTurbulence type="fractalNoise" baseFrequency=".85" numOctaves="3" stitchTiles="stitch"/><feColorMatrix type="saturate" values="0"/></filter>
</defs>
<rect width="800" height="1000" fill="url(#bg)"/>
<rect width="800" height="1000" fill="url(#glow)"/>
<ellipse cx="400" cy="836" rx="250" ry="42" fill="url(#sh)"/>

  <ellipse cx="400" cy="826" rx="150" ry="28" fill="url(#sh)" opacity=".85"/>
  <path d="M 344 346 q 0 -46 22 -66 h 68 q 22 20 22 66 v 396 q 0 66 -56 66 h 0 q -56 0 -56 -66 z" fill="url(#dk)"/>
  <path d="M 344 346 q 0 -46 22 -66 h 68 q 22 20 22 66 v 396 q 0 66 -56 66 h 0 q -56 0 -56 -66 z" fill="none" stroke="#fff" stroke-opacity=".16"/>
  <rect x="352" y="246" width="96" height="84" rx="26" fill="url(#mt)"/>
  <rect x="352" y="246" width="96" height="84" rx="26" fill="none" stroke="#fff" stroke-opacity=".55"/>
  <rect x="344" y="322" width="112" height="18" rx="9" fill="#cf5b34"/>
  <path d="M 366 400 q -8 220 12 348" stroke="#fff" stroke-opacity=".34" stroke-width="26" fill="none" stroke-linecap="round" filter="url(#b10)" opacity=".75"/>
  <path d="M 462 400 q 6 200 -4 340" stroke="#000" stroke-opacity=".4" stroke-width="20" fill="none" stroke-linecap="round" filter="url(#b10)" opacity=".5"/>
  <circle cx="400" cy="562" r="30" fill="none" stroke="#fff" stroke-opacity=".3" stroke-width="3"/>
  <circle cx="400" cy="562" r="7" fill="#fff" fill-opacity=".55"/>
<rect width="800" height="1000" filter="url(#grain)" opacity=".055" style="mix-blend-mode:multiply"/>
</svg>
